#Comment line ignore any data following # character 
#Hierarchical Translation and Rotation (.htr) file 
[Header]	
#Header keywords are followed by a single value 
FileType HTR		#Single word string
DataType HTRS		#Translation followed by rotation and scale data
FileVersion 1		#integer
NumSegments 64		#integer
NumFrames 3		#integer
DataFrameRate 30		#integer, data frame rate in this file
EulerRotationOrder ZYX
CalibrationUnits mm
RotationUnits Degrees
GlobalAxisofGravity Y
BoneLengthAxis Y
ScaleFactor 1.00
[SegmentNames&Hierarchy]
#CHILD	PARENT
Pinger_Root GLOBAL
Pelvis Pinger_Root
L_Hip Pelvis
R_Hip Pelvis
Rear_Leg01 Pelvis
Spine1 Pelvis
L_Leg01 L_Hip
L_Leg02 L_Leg01
L_Leg03 L_Leg02
L_Foot L_Leg03
L_Toe1_01 L_Foot
L_Toe2_01 L_Foot
L_Toe3_01 L_Foot
planeAlignerLeft L_Foot
L_Toe1_02 L_Toe1_01
L_Toe1_03 L_Toe1_02
L_Toe2_02 L_Toe2_01
L_Toe2_03 L_Toe2_02
L_Toe3_02 L_Toe3_01
L_Toe3_03 L_Toe3_02
planeLockWeightLeft planeAlignerLeft
R_Leg01 R_Hip
R_Leg02 R_Leg01
R_Leg03 R_Leg02
R_Foot R_Leg03
planeAlignerRight R_Foot
R_Toe1_01 R_Foot
R_Toe2_01 R_Foot
R_Toe3_01 R_Foot
planeLockWeightRight planeAlignerRight
R_Toe1_02 R_Toe1_01
R_Toe1_03 R_Toe1_02
R_Toe2_02 R_Toe2_01
R_Toe2_03 R_Toe2_02
R_Toe3_02 R_Toe3_01
R_Toe3_03 R_Toe3_02
Rear_Leg02 Rear_Leg01
Rear_Leg03 Rear_Leg02
Rear_Leg04 Rear_Leg03
Rear_Foot Rear_Leg04
planeAlignerCenter Rear_Foot
Rear_Toe1_01 Rear_Foot
Rear_Toe2_01 Rear_Foot
Rear_Toe3_01 Rear_Foot
planeLockWeightCenter planeAlignerCenter
Rear_Toe1_02 Rear_Toe1_01
Rear_Toe1_03 Rear_Toe1_02
Rear_Toe2_02 Rear_Toe2_01
Rear_Toe2_03 Rear_Toe2_02
Rear_Toe3_02 Rear_Toe3_01
Rear_Toe3_03 Rear_Toe3_02
Back_Bone Spine1
Head Spine1
Motor_Bone Back_Bone
Ping_Mechanism Back_Bone
BN_LookIK Head
bottomMouth Head
L_Mouth01 Head
L_mouthFront Head
mouthGun Head
R_Mouth01 Head
R_mouthFront Head
TopMouth Head
weapon_bone Head
[BasePosition]
#SegmentName Tx, Ty, Tz, Rx, Ry, Rz, BoneLength
Pinger_Root 0.000000 0.000000 0.000000 -90.000000 0.000000 0.000000 10.000000 
Pelvis 0.000000 0.000000 0.000000 0.000000 0.000000 0.000000 10.000000 
L_Hip 0.000000 0.000000 0.000000 0.000000 0.000000 0.000000 10.000000 
R_Hip 0.000000 0.000000 0.000000 0.000000 0.000000 0.000000 10.000000 
Rear_Leg01 0.000000 0.000000 0.000000 0.000000 0.000000 0.000000 10.000000 
Spine1 0.000000 0.000000 0.000000 0.000000 0.000000 0.000000 10.000000 
L_Leg01 0.000000 0.000000 0.000000 0.000000 0.000000 0.000000 10.000000 
L_Leg02 0.000000 0.000000 0.000000 0.000000 0.000000 0.000000 10.000000 
L_Leg03 0.000000 0.000000 0.000000 0.000000 0.000000 0.000000 10.000000 
L_Foot 0.000000 0.000000 0.000000 0.000000 0.000000 0.000000 10.000000 
L_Toe1_01 0.000000 0.000000 0.000000 0.000000 0.000000 0.000000 10.000000 
L_Toe2_01 0.000000 0.000000 0.000000 0.000000 0.000000 0.000000 10.000000 
L_Toe3_01 0.000000 0.000000 0.000000 0.000000 0.000000 0.000000 10.000000 
planeAlignerLeft 0.000000 0.000000 0.000000 0.000000 0.000000 0.000000 10.000000 
L_Toe1_02 0.000000 0.000000 0.000000 0.000000 0.000000 0.000000 10.000000 
L_Toe1_03 0.000000 0.000000 0.000000 0.000000 0.000000 0.000000 10.000000 
L_Toe2_02 0.000000 0.000000 0.000000 0.000000 0.000000 0.000000 10.000000 
L_Toe2_03 0.000000 0.000000 0.000000 0.000000 0.000000 0.000000 10.000000 
L_Toe3_02 0.000000 0.000000 0.000000 0.000000 0.000000 0.000000 10.000000 
L_Toe3_03 0.000000 0.000000 0.000000 0.000000 0.000000 0.000000 10.000000 
planeLockWeightLeft 0.000000 0.000000 0.000000 0.000000 0.000000 0.000000 10.000000 
R_Leg01 0.000000 0.000000 0.000000 0.000000 0.000000 0.000000 10.000000 
R_Leg02 0.000000 0.000000 0.000000 0.000000 0.000000 0.000000 10.000000 
R_Leg03 0.000000 0.000000 0.000000 0.000000 0.000000 0.000000 10.000000 
R_Foot 0.000000 0.000000 0.000000 0.000000 0.000000 0.000000 10.000000 
planeAlignerRight 0.000000 0.000000 0.000000 0.000000 0.000000 0.000000 10.000000 
R_Toe1_01 0.000000 0.000000 0.000000 0.000000 0.000000 0.000000 10.000000 
R_Toe2_01 0.000000 0.000000 0.000000 0.000000 0.000000 0.000000 10.000000 
R_Toe3_01 0.000000 0.000000 0.000000 0.000000 0.000000 0.000000 10.000000 
planeLockWeightRight 0.000000 0.000000 0.000000 0.000000 0.000000 0.000000 10.000000 
R_Toe1_02 0.000000 0.000000 0.000000 0.000000 0.000000 0.000000 10.000000 
R_Toe1_03 0.000000 0.000000 0.000000 0.000000 0.000000 0.000000 10.000000 
R_Toe2_02 0.000000 0.000000 0.000000 0.000000 0.000000 0.000000 10.000000 
R_Toe2_03 0.000000 0.000000 0.000000 0.000000 0.000000 0.000000 10.000000 
R_Toe3_02 0.000000 0.000000 0.000000 0.000000 0.000000 0.000000 10.000000 
R_Toe3_03 0.000000 0.000000 0.000000 0.000000 0.000000 0.000000 10.000000 
Rear_Leg02 0.000000 0.000000 0.000000 0.000000 0.000000 0.000000 10.000000 
Rear_Leg03 0.000000 0.000000 0.000000 0.000000 0.000000 0.000000 10.000000 
Rear_Leg04 0.000000 0.000000 0.000000 0.000000 0.000000 0.000000 10.000000 
Rear_Foot 0.000000 0.000000 0.000000 0.000000 0.000000 0.000000 10.000000 
planeAlignerCenter 0.000000 0.000000 0.000000 0.000000 0.000000 0.000000 10.000000 
Rear_Toe1_01 0.000000 0.000000 0.000000 0.000000 0.000000 0.000000 10.000000 
Rear_Toe2_01 0.000000 0.000000 0.000000 0.000000 0.000000 0.000000 10.000000 
Rear_Toe3_01 0.000000 0.000000 0.000000 0.000000 0.000000 0.000000 10.000000 
planeLockWeightCenter 0.000000 0.000000 0.000000 0.000000 0.000000 0.000000 10.000000 
Rear_Toe1_02 0.000000 0.000000 0.000000 0.000000 0.000000 0.000000 10.000000 
Rear_Toe1_03 0.000000 0.000000 0.000000 0.000000 0.000000 0.000000 10.000000 
Rear_Toe2_02 0.000000 0.000000 0.000000 0.000000 0.000000 0.000000 10.000000 
Rear_Toe2_03 0.000000 0.000000 0.000000 0.000000 0.000000 0.000000 10.000000 
Rear_Toe3_02 0.000000 0.000000 0.000000 0.000000 0.000000 0.000000 10.000000 
Rear_Toe3_03 0.000000 0.000000 0.000000 0.000000 0.000000 0.000000 10.000000 
Back_Bone 0.000000 0.000000 0.000000 0.000000 0.000000 0.000000 10.000000 
Head 0.000000 0.000000 0.000000 0.000000 0.000000 0.000000 10.000000 
Motor_Bone 0.000000 0.000000 0.000000 0.000000 0.000000 0.000000 10.000000 
Ping_Mechanism 0.000000 0.000000 0.000000 0.000000 0.000000 0.000000 10.000000 
BN_LookIK 0.000000 0.000000 0.000000 0.000000 0.000000 0.000000 10.000000 
bottomMouth 0.000000 0.000000 0.000000 0.000000 0.000000 0.000000 10.000000 
L_Mouth01 0.000000 0.000000 0.000000 0.000000 0.000000 0.000000 10.000000 
L_mouthFront 0.000000 0.000000 0.000000 0.000000 0.000000 0.000000 10.000000 
mouthGun 0.000000 0.000000 0.000000 0.000000 0.000000 0.000000 10.000000 
R_Mouth01 0.000000 0.000000 0.000000 0.000000 0.000000 0.000000 10.000000 
R_mouthFront 0.000000 0.000000 0.000000 0.000000 0.000000 0.000000 10.000000 
TopMouth 0.000000 0.000000 0.000000 0.000000 0.000000 0.000000 10.000000 
weapon_bone 0.000000 0.000000 0.000000 0.000000 0.000000 0.000000 10.000000 
#Beginning of Data. Separated by tabs
#Fr	Tx	Ty	Tz	Rx	Ry	Rz	SF
[Pinger_Root]
26 -0.000017 -2150.145508 0.000000 -0.000075 -0.000000 -0.000020 2150.145508
27 -0.000018 -2211.894775 0.000000 -0.000075 -0.000000 -0.000020 2211.894775
28 -0.000018 -2268.629639 0.000000 -0.000075 -0.000000 -0.000020 2268.629639
[Pelvis]
26 -27.796291 915.868225 4748.830078 37.106255 -70.859329 -18.617504 4836.421387
27 29.602245 948.842896 4739.470703 38.001171 -71.158966 -18.291164 4833.606934
28 88.642281 979.031677 4724.979492 38.134426 -71.901260 -17.323044 4826.156738
[L_Hip]
26 5.766392 125.831482 872.656799 -178.253311 -81.787758 87.381340 881.701050
27 5.766392 125.831482 872.656799 -178.253311 -81.787712 87.381248 881.701050
28 5.766392 125.831482 872.656799 -178.253342 -81.787758 87.381340 881.701050
[R_Hip]
26 5.765438 125.836372 -872.654907 -1.746690 81.787712 87.381248 881.699829
27 5.765438 125.836372 -872.654907 -1.746713 81.787666 87.381149 881.699829
28 5.765438 125.836372 -872.654907 -1.746678 81.787712 87.381248 881.699829
[Rear_Leg01]
26 -192.298416 -925.602966 -0.001907 153.642319 -20.290680 -130.692230 945.367432
27 -192.298416 -925.602966 -0.001907 154.119308 -26.979563 -133.717865 945.367432
28 -192.298416 -925.602966 -0.001907 154.712021 -33.072681 -137.384247 945.367432
[Spine1]
26 290.604584 5.007505 0.000477 -25.137394 -3.983665 38.711182 290.647736
27 290.604584 5.007505 0.000477 -26.321716 -2.926001 38.766617 290.647736
28 290.604584 5.007505 0.000477 -27.231966 -1.786476 38.366901 290.647736
[L_Leg01]
26 761.932007 -0.002384 -0.069261 81.144279 -29.363140 -94.846992 761.932068
27 761.932007 -0.002384 -0.069261 84.597122 -28.335802 -95.662239 761.932068
28 761.932007 -0.002384 -0.069261 87.629669 -27.538759 -96.557190 761.932068
[L_Leg02]
26 1441.140503 -0.000954 -0.000715 -1.410118 0.695857 -91.816254 1441.140503
27 1441.140503 -0.000954 -0.000715 -1.434585 0.676324 -89.523811 1441.140503
28 1441.140503 -0.000954 -0.000715 -1.484548 0.609948 -88.995346 1441.140503
[L_Leg03]
26 1686.963989 -0.000715 -0.000954 0.068648 -0.011408 91.530823 1686.963989
27 1686.963989 -0.000715 -0.000954 0.065007 -0.015280 92.273956 1686.963989
28 1686.963989 -0.000715 -0.000954 0.054194 -0.013301 95.909561 1686.963989
[L_Foot]
26 3041.570068 -30.715107 11.297464 -8.214676 6.919153 48.600517 3041.746094
27 3041.570068 -30.715107 11.297464 -9.357697 8.385837 46.543606 3041.746094
28 3041.570068 -30.715107 11.297464 -10.701115 10.512013 45.406216 3041.746094
[L_Toe1_01]
26 -188.216690 -224.732346 -21.137953 89.087776 -1.728207 -155.107437 293.899567
27 -188.216690 -224.732346 -21.137953 89.073250 -1.720024 -154.619781 293.899567
28 -188.216690 -224.732346 -21.137953 89.058022 -2.403888 -153.214417 293.899567
[L_Toe2_01]
26 200.746536 -219.926590 148.838394 -76.268135 -12.576219 -51.022224 332.896027
27 200.746536 -219.926590 148.838394 -76.175201 -12.484291 -51.472076 332.896027
28 200.746536 -219.926590 148.838394 -76.083824 -12.191303 -52.067104 332.896027
[L_Toe3_01]
26 188.832520 -219.859131 -191.078659 -107.832893 15.569589 -52.986938 347.140900
27 188.832520 -219.859131 -191.078659 -107.947083 15.450720 -53.435593 347.140900
28 188.832520 -219.859131 -191.078659 -108.055733 15.078206 -54.013680 347.140900
[planeAlignerLeft]
26 -78.893738 -699.330811 0.061264 0.000000 -89.934387 -90.068069 703.766846
27 -78.141174 -705.210327 0.060120 0.000000 -89.920876 -90.070709 709.526367
28 -69.283325 -712.800354 1.972306 0.000000 -89.925987 -90.073380 716.162231
[L_Toe1_02]
26 413.761139 0.000477 0.000000 0.001387 -25.556391 0.001387 413.761139
27 413.761139 0.000477 0.000000 0.001387 -25.647600 0.001387 413.761139
28 413.761139 0.000477 0.000000 0.001389 -25.391588 0.001389 413.761139
[L_Toe1_03]
26 464.317322 0.000358 -0.000089 0.004775 61.544144 0.004775 464.317322
27 464.317322 0.000358 -0.000089 0.004721 61.210590 0.004721 464.317322
28 464.317322 0.000358 -0.000089 0.004998 62.837898 0.004998 464.317322
[L_Toe2_02]
26 342.235809 -0.000477 0.000238 0.001180 -77.935654 0.001180 342.235809
27 342.235809 -0.000477 0.000238 0.001180 -77.746437 0.001180 342.235809
28 342.235809 -0.000477 0.000238 0.001181 -77.557152 0.001181 342.235809
[L_Toe2_03]
26 420.210846 -0.000715 0.000000 -179.997147 75.664314 -179.993622 420.210846
27 420.210846 -0.000715 0.000000 -179.996872 76.537300 -179.993347 420.210846
28 420.210846 -0.000715 0.000000 -179.996292 77.929840 -179.992783 420.210846
[L_Toe3_02]
26 329.270111 0.000954 0.000000 0.001177 -81.573196 0.001177 329.270111
27 329.270111 0.000954 0.000000 0.001177 -81.280304 0.001177 329.270111
28 329.270111 0.000954 0.000000 0.001177 -80.987312 0.001177 329.270111
[L_Toe3_03]
26 439.137451 -0.001907 0.000954 -179.997650 73.952164 -179.994125 439.137451
27 439.137451 -0.001907 0.000954 -179.997421 74.771545 -179.993896 439.137451
28 439.137451 -0.001907 0.000954 -179.997025 76.059326 -179.993500 439.137451
[planeLockWeightLeft]
26 1000.000488 -0.000305 -0.000221 -0.011826 -0.004376 0.005620 1000.000488
27 1000.000488 -0.000305 -0.000219 -0.011826 -0.004376 0.005620 1000.000488
28 896.000732 -0.000305 -0.000072 -0.011826 -0.004376 0.005620 896.000793
[R_Leg01]
26 761.455627 -0.001907 -0.000358 100.734566 -6.748420 48.404324 761.455688
27 761.455627 -0.001907 -0.000358 106.137993 -10.492181 45.145863 761.455688
28 761.455627 -0.001907 -0.000358 111.354515 -10.985757 42.999321 761.455688
[R_Leg02]
26 1441.140625 0.000000 -0.000238 -0.515373 -0.038675 -135.940506 1441.140625
27 1441.140625 0.000000 -0.000238 -0.424279 -0.013521 -136.489792 1441.140625
28 1441.140625 0.000000 -0.000238 -0.282383 -0.005893 -131.947998 1441.140625
[R_Leg03]
26 1686.963989 0.000954 0.001431 0.034302 -0.016281 119.540688 1686.963989
27 1686.963989 0.000954 0.001431 0.018614 -0.007682 114.852730 1686.963989
28 1686.963989 0.000954 0.001431 0.002307 -0.000432 111.217697 1686.963989
[R_Foot]
26 3041.560059 -30.531288 -11.204481 25.519459 -28.849163 65.938683 3041.734131
27 3041.560059 -30.531288 -11.204481 24.414581 -24.653946 66.641823 3041.734131
28 3041.560059 -30.531288 -11.204481 23.216516 -20.955580 64.794289 3041.734131
[planeAlignerRight]
26 129.068832 -838.292542 -141.508041 0.000000 -89.923386 -90.052643 859.894043
27 56.815765 -769.188965 -146.196274 0.000000 -89.920876 -90.054550 785.017822
28 -77.374367 -640.861755 -147.193909 0.000000 -89.916069 -90.056450 662.085022
[R_Toe1_01]
26 -188.383347 -224.864899 21.052242 90.927559 2.864691 -149.333649 294.101532
27 -188.383347 -224.864899 21.052242 90.842484 3.009571 -152.669083 294.101532
28 -188.383347 -224.864899 21.052242 90.821106 2.833271 -156.309052 294.101532
[R_Toe2_01]
26 200.637817 -220.002121 -148.787384 -102.361725 -4.599206 -60.457367 332.857574
27 200.637817 -220.002121 -148.787384 -101.583351 -1.164622 -54.571934 332.857574
28 200.637817 -220.002121 -148.787384 -100.816704 5.427098 -45.047123 332.857574
[R_Toe3_01]
26 188.606735 -220.092957 191.126343 -49.996033 -35.935757 -87.965645 347.192566
27 188.606735 -220.092957 191.126343 -52.099766 -36.976242 -82.192390 347.192566
28 188.606735 -220.092957 191.126343 -58.712914 -39.739037 -67.109001 347.192566
[planeLockWeightRight]
26 999.999512 0.000000 -0.000343 -0.011823 -0.004379 -0.000027 999.999512
27 999.999695 0.000006 -0.000345 -0.011823 -0.004379 -0.000027 999.999695
28 999.999695 0.000011 -0.000347 -0.011823 -0.004379 -0.000027 999.999695
[R_Toe1_02]
26 413.762085 0.000477 -0.000119 0.001397 -24.279928 0.001397 413.762085
27 413.762085 0.000477 -0.000119 0.001392 -24.897463 0.001392 413.762085
28 413.762085 0.000477 -0.000119 0.001384 -25.982470 0.001384 413.762085
[R_Toe1_03]
26 464.317810 0.000000 0.001088 0.007450 71.873833 0.007450 464.317810
27 464.317810 0.000000 0.001088 0.006149 67.993042 0.006149 464.317810
28 464.317810 0.000000 0.001088 0.001919 54.771465 0.000073 464.317810
[R_Toe2_02]
26 342.234741 -0.000954 0.000238 -0.002339 -76.482704 -0.002339 342.234741
27 342.234741 -0.000954 0.000238 -0.002341 -75.929619 -0.002341 342.234741
28 342.234741 -0.000954 0.000238 -0.002337 -77.607895 -0.002337 342.234741
[R_Toe2_03]
26 420.210846 0.000715 -0.000268 -179.990326 81.682068 -179.993835 420.210846
27 420.210846 0.000715 -0.000268 -179.987778 83.704582 -179.991287 420.210846
28 420.210846 0.000715 -0.000268 -179.993149 77.042152 -179.996674 420.210846
[R_Toe3_02]
26 329.270355 -0.000477 -0.000954 -0.002376 -65.801849 -0.002376 329.270355
27 329.270355 -0.000477 -0.000954 -0.000582 -73.073097 -0.000582 329.270355
28 329.270355 -0.000477 -0.000954 0.001178 -80.344292 0.001178 329.270355
[R_Toe3_03]
26 439.137939 0.000238 0.001431 0.005605 65.829430 0.005605 439.137939
27 439.137939 0.000238 0.001431 0.013886 80.303299 0.013886 439.137939
28 439.137939 0.000238 0.001431 -179.995743 79.041077 -179.992218 439.137939
[Rear_Leg02]
26 1162.777710 -0.029802 0.005960 -17.364639 70.108963 -117.344170 1162.777710
27 1162.777710 -0.029802 0.005960 -0.520161 73.455017 -105.398033 1162.777710
28 1162.777710 -0.029802 0.005960 19.373983 74.790977 -90.155586 1162.777710
[Rear_Leg03]
26 607.192505 -0.013351 -0.073195 0.010145 -0.005765 75.570518 607.192505
27 607.192505 -0.013351 -0.073195 0.010165 -0.005730 75.169525 607.192505
28 607.192505 -0.013351 -0.073195 0.010185 -0.005694 74.768532 607.192505
[Rear_Leg04]
26 995.874512 -0.020504 -0.011921 -0.042400 -0.019156 85.530457 995.874573
27 995.874512 -0.020504 -0.011921 -0.043402 -0.018547 84.193344 995.874573
28 995.874512 -0.020504 -0.011921 -0.044419 -0.017962 82.856026 995.874573
[Rear_Foot]
26 3096.176270 -0.067472 -0.041425 81.101974 25.661720 -104.356270 3096.176270
27 3096.176270 -0.067472 -0.041425 80.592964 26.911514 -105.222809 3096.176270
28 3096.176270 -0.067472 -0.041425 80.441116 28.492941 -105.701164 3096.176270
[planeAlignerCenter]
26 5.158357 40.012634 -825.478943 0.001908 -0.001367 161.239731 826.464294
27 0.171604 55.399643 -822.861450 0.001892 -0.001391 162.657867 824.724243
28 -6.588071 68.653168 -816.294983 0.001876 -0.001415 164.077530 819.203369
[Rear_Toe1_01]
26 0.653352 83.966492 -371.173737 -0.432782 29.193916 70.304924 380.553192
27 0.653352 83.966492 -371.173737 -0.147176 29.311531 72.238449 380.553192
28 0.653352 83.966492 -371.173737 0.143062 29.420630 74.174278 380.553192
[Rear_Toe2_01]
26 178.200760 -294.826019 -362.060547 -4.863761 53.267994 -99.128616 499.765686
27 178.200760 -294.826019 -362.060547 -4.923174 53.621780 -97.852837 499.765686
28 178.200760 -294.826019 -362.060547 -4.850936 53.486897 -96.268188 499.765686
[Rear_Toe3_01]
26 -153.359680 -308.780914 -362.060852 -6.921003 53.800583 -140.942474 499.952881
27 -153.359680 -308.780914 -362.060852 -7.303434 53.864067 -140.264618 499.952881
28 -153.359680 -308.780914 -362.060852 -7.460238 53.566101 -139.154236 499.952881
[planeLockWeightCenter]
26 1000.000244 0.000411 -0.000065 -0.011814 -0.004373 -0.000015 1000.000244
27 1000.000244 0.000417 -0.000066 -0.011814 -0.004373 -0.000015 1000.000244
28 1000.000366 0.000423 -0.000067 -0.011814 -0.004373 -0.000015 1000.000366
[Rear_Toe1_02]
26 379.707825 0.194073 0.000477 -0.001786 -33.325954 0.000977 379.707855
27 379.707825 0.194073 0.000477 -0.001500 -33.265953 0.002180 379.707855
28 379.707825 0.194073 0.000477 -0.001212 -33.205956 0.003383 379.707855
[Rear_Toe1_03]
26 500.129700 0.165701 0.000119 0.000720 68.553673 0.002499 500.129761
27 500.129700 0.165701 0.000119 -0.004595 66.389915 -0.001023 500.129761
28 500.129700 0.165701 0.000119 -0.004424 64.776321 -0.000841 500.129761
[Rear_Toe2_02]
26 340.494507 0.000238 -0.000954 0.001187 -73.304497 0.001187 340.494507
27 340.494507 0.000238 -0.000954 0.001183 -75.516174 0.001183 340.494507
28 340.494507 0.000238 -0.000954 0.001181 -77.424095 0.001181 340.494507
[Rear_Toe2_03]
26 433.103577 0.000000 0.000238 0.009325 75.496986 0.009325 433.103546
27 433.103577 0.000000 0.000238 0.012372 79.081474 0.012372 433.103546
28 433.103577 0.000000 0.000238 0.018377 82.662491 0.018377 433.103546
[Rear_Toe3_02]
26 340.494141 -0.000358 -0.000477 0.001183 -75.790482 0.001183 340.494171
27 340.494141 -0.000358 -0.000477 0.001182 -76.844948 0.001182 340.494171
28 340.494141 -0.000358 -0.000477 0.001180 -77.899551 0.001180 340.494171
[Rear_Toe3_03]
26 433.103577 0.001431 -0.000238 0.009542 79.699760 0.010128 433.103546
27 433.103577 0.001431 -0.000238 0.007534 81.643578 0.008704 433.103546
28 433.103577 0.001431 -0.000238 0.004485 83.588455 0.006238 433.103546
[Back_Bone]
26 1312.175781 -701.934692 0.000954 1.639940 -2.968003 -81.691750 1488.125488
27 1312.175781 -701.934692 0.000954 1.248029 -2.507055 -81.486397 1488.125488
28 1312.175781 -701.934692 0.000954 0.782427 -1.893105 -81.981491 1488.125488
[Head]
26 1406.159424 809.709290 0.001431 1.520307 -2.406359 3.571892 1622.625488
27 1406.159424 809.709290 0.001431 1.872874 -2.393802 3.103706 1622.625488
28 1406.159424 809.709290 0.001431 2.225352 -2.378366 2.635575 1622.625488
[Motor_Bone]
26 1158.364380 -417.834747 0.000477 -2.188163 -1.022762 -107.007042 1231.419434
27 1158.364380 -417.834747 0.000477 -2.074372 -0.843159 -106.828514 1231.419434
28 1158.364380 -417.834747 0.000477 -1.960022 -0.663910 -106.649628 1231.419434
[Ping_Mechanism]
26 1205.159546 -400.386322 88.796150 0.000103 -0.000053 82.120995 1273.029297
27 1205.674438 -402.861633 86.845352 0.000103 -0.000053 82.120995 1274.162720
28 1206.189331 -405.336914 84.894547 0.000103 -0.000053 82.120995 1275.302979
[BN_LookIK]
26 193.241119 1380.371704 -0.002861 0.000000 89.965736 -31.038179 1393.832153
27 193.241119 1380.371704 -0.002861 0.000000 89.965736 -31.038179 1393.832153
28 193.241119 1380.371704 -0.002861 0.000000 89.965736 -31.038179 1393.832153
[bottomMouth]
26 -435.092926 615.759399 -0.000954 -0.000022 0.000016 73.527184 753.966492
27 -435.092926 615.759399 -0.000954 -0.000022 0.000016 73.527184 753.966492
28 -435.092926 615.759399 -0.000954 -0.000022 0.000016 73.527184 753.966492
[L_Mouth01]
26 554.440979 7.658243 838.222046 150.204178 23.759130 109.605339 1005.027161
27 554.440979 7.658243 838.222046 150.204178 23.759130 109.605339 1005.027161
28 554.440979 7.658243 838.222046 150.204178 23.759130 109.605339 1005.027161
[L_mouthFront]
26 551.629089 934.514771 339.150421 0.000081 2.804060 79.119301 1136.941284
27 551.629089 934.514771 339.150421 0.000081 2.804060 79.119301 1136.941284
28 551.629089 934.514771 339.150421 0.000081 2.804060 79.119301 1136.941284
[mouthGun]
26 55.332661 1627.420898 0.000000 0.000023 0.000009 -11.038128 1628.361328
27 55.332661 1627.420898 0.000000 0.000023 0.000009 -11.038128 1628.361328
28 55.332661 1627.420898 0.000000 0.000023 0.000009 -11.038128 1628.361328
[R_Mouth01]
26 554.442383 7.659197 -838.223938 29.795891 -23.759109 109.605331 1005.029541
27 554.442383 7.659197 -838.223938 29.795891 -23.759109 109.605331 1005.029541
28 554.442383 7.659197 -838.223938 29.795891 -23.759109 109.605331 1005.029541
[R_mouthFront]
26 551.629089 934.514282 -339.151367 0.000029 -2.803930 79.119133 1136.941162
27 551.629089 934.514282 -339.151367 0.000029 -2.803930 79.119133 1136.941162
28 551.629089 934.514282 -339.151367 0.000029 -2.803930 79.119133 1136.941162
[TopMouth]
26 461.269867 -56.106091 -0.008583 -0.000059 -0.000268 92.025169 464.669525
27 461.269867 -56.106091 -0.008583 -0.000059 -0.000268 92.025169 464.669525
28 461.269867 -56.106091 -0.008583 -0.000059 -0.000268 92.025169 464.669525
[weapon_bone]
26 -987.239868 1448.372803 0.001431 0.000000 89.965736 -31.038221 1752.833740
27 -987.239868 1448.372803 0.001431 0.000000 89.965736 -31.038221 1752.833740
28 -987.239868 1448.372803 0.001431 0.000000 89.965736 -31.038221 1752.833740
